<svg xmlns="http://www.w3.org/2000/svg" xmlns:xlink="http://www.w3.org/1999/xlink" width="122.107" height="30.653" viewBox="0 0 122.107 30.653">
	<defs>
		<clipPath id="a">
			<rect width="122.107" height="30.653" transform="translate(0 0)" fill="#FFFFFF" />
		</clipPath>
	</defs>
	<path d="M29.751,11.446,25.093,21.484,20.471,11.446H16.355l-4.621,9.749L7.292,11.446H0L9.5,29.968h4.44l4.406-10.146,4.62,10.146h4.37l9.676-18.522Z" transform="translate(0 0)" fill="#FFFFFF" />
	<g transform="translate(0 0)">
		<g clip-path="url(#a)">
			<path d="M53,11.445h6.572V29.967H53V27.91a6.857,6.857,0,0,1-5.668,2.636,9.212,9.212,0,0,1-3.719-.741,8.952,8.952,0,0,1-2.96-2.076,9.558,9.558,0,0,1-1.968-3.141,10.728,10.728,0,0,1-.7-3.936,10.44,10.44,0,0,1,.685-3.772,9.691,9.691,0,0,1,1.915-3.124,8.888,8.888,0,0,1,6.679-2.888A7.54,7.54,0,0,1,53,13.287Zm-8.231,9.207a4.312,4.312,0,0,0,1.209,3.033,3.974,3.974,0,0,0,1.336.9,4.317,4.317,0,0,0,1.679.325,4.225,4.225,0,0,0,1.643-.325,3.979,3.979,0,0,0,1.335-.9,4.668,4.668,0,0,0,.9-1.336,3.892,3.892,0,0,0,.343-1.625,4.011,4.011,0,0,0-.343-1.642,4.614,4.614,0,0,0-.9-1.355,3.977,3.977,0,0,0-1.335-.9,4.206,4.206,0,0,0-1.643-.325,4.3,4.3,0,0,0-1.679.325,3.971,3.971,0,0,0-1.336.9,4.468,4.468,0,0,0-.885,1.319,3.943,3.943,0,0,0-.324,1.606" fill="#FFFFFF" />
			<rect width="6.535" height="29.968" transform="translate(64.375 -0.001)" fill="#FFFFFF" />
			<rect width="6.535" height="29.968" transform="translate(75.748 -0.001)" fill="#FFFFFF" />
			<path d="M93.007,21.808q0,4.224,3.971,4.225a3.548,3.548,0,0,0,3.213-1.734h6.319q-1.914,6.357-9.568,6.355a12.6,12.6,0,0,1-4.3-.7,9.606,9.606,0,0,1-3.339-2,8.94,8.94,0,0,1-2.149-3.106A10.355,10.355,0,0,1,86.4,20.8a11.455,11.455,0,0,1,.722-4.17,8.762,8.762,0,0,1,2.059-3.159,9.088,9.088,0,0,1,3.231-2,12.229,12.229,0,0,1,4.278-.7,11.973,11.973,0,0,1,4.225.7,8.561,8.561,0,0,1,3.177,2.04,8.884,8.884,0,0,1,1.986,3.268,12.951,12.951,0,0,1,.686,4.35v.686Zm7.654-3.791a3.936,3.936,0,0,0-1.336-2.2,4.146,4.146,0,0,0-4.929-.036,3.6,3.6,0,0,0-1.209,2.238Z" fill="#FFFFFF" />
			<path d="M118.389,16.9v13.07h-6.535V16.9h-2.167V11.445h2.167V5.885h6.535v5.56h3.719V16.9Z" fill="#FFFFFF" />
		</g>
	</g>
</svg>